M48
INCH,TZ
T1C0.016
T2C0.030
T3C0.031
T4C0.039
T5C0.040
T6C0.043
T7C0.071
T8C0.118
T9C0.126
T10C0.130
%
G90
G05
T1
X6860Y-9921
X7067Y-4331
X7559Y-13898
X8898Y-16850
X9016Y-18701
X9843Y-22795
X10020Y-4528
X10118Y-10404
X10315Y-11102
X10630Y-5827
X11732Y-8150
X11762Y-3386
X11949Y-8967
X12087Y-11890
X12559Y-3228
X12835Y-8819
X14055Y-13740
X14291Y-19882
X14921Y-3504
X14961Y-12874
X15433Y-13780
X16142Y-10276
X16457Y-10866
X16811Y-9921
X16890Y-16457
X17126Y-5197
X17244Y-12953
X17677Y-18504
X17795Y-2835
X17835Y-15157
X17992Y-14213
X18071Y-14646
X18465Y-13071
X18858Y-14055
X19016Y-10197
X19291Y-2992
X19331Y-18622
X19409Y-15512
X19409Y-21417
X19803Y-15827
X20197Y-13976
X20276Y-12756
X20591Y-14331
X20748Y-12362
X20984Y-15630
X21142Y-13425
X22638Y-2441
T2
X24583Y-835
X24583Y-1835
X24583Y-2835
X24583Y-3835
X24583Y-4835
X24583Y-5835
X24583Y-6835
X24583Y-7835
X24583Y-8835
X24583Y-9835
X24583Y-10835
X24583Y-11835
X24583Y-12835
X24583Y-13835
X24583Y-14835
X24583Y-15835
X24583Y-16835
X24583Y-17835
X24583Y-18835
X24583Y-19835
X24583Y-20835
X24583Y-21835
X24583Y-22835
X25583Y-835
X25583Y-1835
X25583Y-2835
X25583Y-3835
X25583Y-4835
X25583Y-5835
X25583Y-6835
X25583Y-7835
X25583Y-8835
X25583Y-9835
X25583Y-10835
X25583Y-11835
X25583Y-12835
X25583Y-13835
X25583Y-14835
X25583Y-15835
X25583Y-16835
X25583Y-17835
X25583Y-18835
X25583Y-19835
X25583Y-20835
X25583Y-21835
X25583Y-22835
X26583Y-835
X26583Y-1835
X26583Y-2835
X26583Y-3835
X26583Y-4835
X26583Y-5835
X26583Y-6835
X26583Y-7835
X26583Y-8835
X26583Y-9835
X26583Y-10835
X26583Y-11835
X26583Y-12835
X26583Y-13835
X26583Y-14835
X26583Y-15835
X26583Y-16835
X26583Y-17835
X26583Y-18835
X26583Y-19835
X26583Y-20835
X26583Y-21835
X26583Y-22835
X27583Y-835
X27583Y-1835
X27583Y-2835
X27583Y-3835
X27583Y-4835
X27583Y-5835
X27583Y-6835
X27583Y-7835
X27583Y-8835
X27583Y-9835
X27583Y-10835
X27583Y-11835
X27583Y-12835
X27583Y-13835
X27583Y-14835
X27583Y-15835
X27583Y-16835
X27583Y-17835
X27583Y-18835
X27583Y-19835
X27583Y-20835
X27583Y-21835
X27583Y-22835
X28583Y-835
X28583Y-1835
X28583Y-2835
X28583Y-3835
X28583Y-4835
X28583Y-5835
X28583Y-6835
X28583Y-7835
X28583Y-8835
X28583Y-9835
X28583Y-10835
X28583Y-11835
X28583Y-12835
X28583Y-13835
X28583Y-14835
X28583Y-15835
X28583Y-16835
X28583Y-17835
X28583Y-18835
X28583Y-19835
X28583Y-20835
X28583Y-21835
X28583Y-22835
X29583Y-835
X29583Y-1835
X29583Y-2835
X29583Y-3835
X29583Y-4835
X29583Y-5835
X29583Y-6835
X29583Y-7835
X29583Y-8835
X29583Y-9835
X29583Y-10835
X29583Y-11835
X29583Y-12835
X29583Y-13835
X29583Y-14835
X29583Y-15835
X29583Y-16835
X29583Y-17835
X29583Y-18835
X29583Y-19835
X29583Y-20835
X29583Y-21835
X29583Y-22835
X30583Y-835
X30583Y-1835
X30583Y-2835
X30583Y-3835
X30583Y-4835
X30583Y-5835
X30583Y-6835
X30583Y-7835
X30583Y-8835
X30583Y-9835
X30583Y-10835
X30583Y-11835
X30583Y-12835
X30583Y-13835
X30583Y-14835
X30583Y-15835
X30583Y-16835
X30583Y-17835
X30583Y-18835
X30583Y-19835
X30583Y-20835
X30583Y-21835
X30583Y-22835
X31583Y-835
X31583Y-1835
X31583Y-2835
X31583Y-3835
X31583Y-4835
X31583Y-5835
X31583Y-6835
X31583Y-7835
X31583Y-8835
X31583Y-9835
X31583Y-10835
X31583Y-11835
X31583Y-12835
X31583Y-13835
X31583Y-14835
X31583Y-15835
X31583Y-16835
X31583Y-17835
X31583Y-18835
X31583Y-19835
X31583Y-20835
X31583Y-21835
X31583Y-22835
X32583Y-835
X32583Y-1835
X32583Y-2835
X32583Y-3835
X32583Y-4835
X32583Y-5835
X32583Y-6835
X32583Y-7835
X32583Y-8835
X32583Y-9835
X32583Y-10835
X32583Y-11835
X32583Y-12835
X32583Y-13835
X32583Y-14835
X32583Y-15835
X32583Y-16835
X32583Y-17835
X32583Y-18835
X32583Y-19835
X32583Y-20835
X32583Y-21835
X32583Y-22835
X33583Y-835
X33583Y-1835
X33583Y-2835
X33583Y-3835
X33583Y-4835
X33583Y-5835
X33583Y-6835
X33583Y-7835
X33583Y-8835
X33583Y-9835
X33583Y-10835
X33583Y-11835
X33583Y-12835
X33583Y-13835
X33583Y-14835
X33583Y-15835
X33583Y-16835
X33583Y-17835
X33583Y-18835
X33583Y-19835
X33583Y-20835
X33583Y-21835
X33583Y-22835
X34583Y-1835
X34583Y-2835
X34583Y-3835
X34583Y-4835
X34583Y-5835
X34583Y-6835
X34583Y-7835
X34583Y-8835
X34583Y-9835
X34583Y-10835
X34583Y-11835
X34583Y-12835
X34583Y-13835
X34583Y-14835
X34583Y-15835
X34583Y-16835
X34583Y-17835
X34583Y-18835
X34583Y-19835
X34583Y-20835
X34583Y-21835
T3
X6693Y-689
X16122Y-8661
X18043Y-8661
T4
X2913Y-14134
X2913Y-15591
X2913Y-17067
X7913Y-1677
X7913Y-2677
X7953Y-7386
X7953Y-8386
X8913Y-1677
X8913Y-2677
X8953Y-7386
X8953Y-8386
X10394Y-1677
X10394Y-2677
X10433Y-7386
X10433Y-8386
X13307Y-15079
X13307Y-16079
X13307Y-17079
X13307Y-18079
X14748Y-984
X14748Y-2402
X15098Y-17079
X15098Y-18079
X15748Y-984
X15748Y-2402
X16087Y-19732
X16087Y-20732
X16087Y-21732
X17087Y-19732
X17087Y-20732
X17087Y-21732
X23583Y-835
X23583Y-1835
X23583Y-2835
X23583Y-3835
X23583Y-4835
X23583Y-5835
X23583Y-6835
X23583Y-7835
X23583Y-8835
X23583Y-9835
X23583Y-10835
X23583Y-11835
X23583Y-12835
X23583Y-13835
X23583Y-14835
X23583Y-15835
X23583Y-16835
X23583Y-17835
X23583Y-18835
X23583Y-19835
X23583Y-20835
X23583Y-21835
X23583Y-22835
T5
X4284Y-5099
X4284Y-6189
X4284Y-7275
X4284Y-8365
X5402Y-4551
X5402Y-5642
X5402Y-6732
X5402Y-7822
X5402Y-8913
T6
X19236Y-19618
X19236Y-22177
X21008Y-19618
X21008Y-22177
T7
X3839Y-18898
X3839Y-20551
X6004Y-18898
X6004Y-20551
T8
X965Y-19724
T9
X4754Y-14547
X12530Y-1250
X13740Y-21230
X20591Y-1545
T10
X4843Y-1811
X4843Y-11653
T0
M30
